<svg xmlns="http://www.w3.org/2000/svg" version="1.1" xmlns:xlink="http://www.w3.org/1999/xlink" xmlns:svgjs="http://svgjs.dev/svgjs" width="2000" height="1344" viewBox="0 0 2000 1344"><g transform="matrix(1,0,0,1,-0.9072641307383265,-2.1667411866901602)"><svg viewBox="0 0 369 248" data-background-color="#ffffff" preserveAspectRatio="xMidYMid meet" height="1344" width="2000" xmlns="http://www.w3.org/2000/svg" xmlns:xlink="http://www.w3.org/1999/xlink"><g id="tight-bounds" transform="matrix(1,0,0,1,0.16755376709471648,0.40002634420793015)"><svg viewBox="0 0 368.6647722609472 247.2" height="247.2" width="368.6647722609472"><g><svg viewBox="0 0 368.6647722609472 247.2" height="247.2" width="368.6647722609472"><g><svg viewBox="0 0 368.6647722609472 247.2" height="247.2" width="368.6647722609472"><g id="textblocktransform"><svg viewBox="0 0 368.6647722609472 247.2" height="247.2" width="368.6647722609472" id="textblock"><g><svg viewBox="0 0 368.6647722609472 247.2" height="247.2" width="368.6647722609472"><path d="M367.802 53.02C366.068 27.36 361.129 20.227 361.129 20.227 345.964-6.202 327.037-0.506 310.035 3.292 280.016 3.446 250.119 9.091 220.17 12.119 157.308 12.581 93.908 4.986 31.358 23.717 25.483 29.464-6.096 24.846 1.045 56.304 2.917 69.39 9.746 83.913 9.538 95.922 10.474 98.026 11.773 93.202 12.328 96.23 14.269 104.39 17.441 100.541 20.041 105.365 16.418 118.246 19.018 128.971 21.497 140.21 17.129 143.135 11.531 141.749 9.018 151.449 8.758 158.479 7.354 157.145 5.811 156.837 4.685 156.632 2.414 157.402 2.796 159.608 4.095 167.152-1.485 171.514 2.016 178.904-0.393 186.91 3.68 193.838 3.125 202.511 3.056 204.255 3.437 205.744 4.043 206.154 6.73 208.361 2.813 212.672 3.229 217.342 30.786 249.262 60.684 227.195 88.917 241.872 96.248 231.608 90.737 245.516 93.666 243.36 95.954 240.846 97.617 251.263 100.2 245.362 100.598 243.668 99.992 239.665 101.413 240.435 102.158 240.846 102.817 240.743 102.921 238.382 103.077 234.841 101.708 237.048 101.344 235.201 105.278 225.861 104.307 248.081 107.999 247.158 107.826 244.438 106.751 240.538 108.952 241.051 111.136 237.151 111.206 233.918 113.147 242.693 113.216 244.592 113.563 245.926 114.117 246.85 120.183 237.305 126.215 250.237 132.576 245.926 136.475 241.205 140.219 248.492 144.17 246.696 145.557 245.259 146.961 242.693 148.295 247.004 164.639 247.928 182.058 244.079 197.552 247.158 238.958 241.41 283.206 249.518 326.864 241.923 337.159 238.998 347.853 234.841 357.888 231.506 357.888 231.506 366.016 222.371 366.016 181.316S367.75 145.393 368.01 112.703C368.27 80.013 369.483 78.679 367.75 53.02Z" opacity="1" fill="#77d4fc" data-fill-palette-color="tertiary"></path><g transform="matrix(1,0,0,1,55.768319999999974,26.230666666666668)"><svg width="257.1281322609472" viewBox="0.95 -37.1 49.25 37.300000000000004" height="194.73866666666666" data-palette-color="#ffffff"><path d="M15-25.4L15-25.4Q14.3-22.7 13.28-19.8 12.25-16.9 11.15-14.3L11.15-14.3Q11.1-14.2 10.9-13.83 10.7-13.45 10.6-13.5L10.6-13.5Q10.45-13.5 10.48-13.93 10.5-14.35 10.55-14.5L10.55-14.5Q10.6-15.1 10.75-16 10.9-16.9 11.08-17.85 11.25-18.8 11.48-19.7 11.7-20.6 11.9-21.25L11.9-21.25Q12-21.45 12.2-22.25 12.4-23.05 12.63-24.18 12.85-25.3 13.1-26.65 13.35-28 13.55-29.3L13.55-29.3 12.95-29.45Q12.7-27.7 12.23-25.88 11.75-24.05 11.18-22.23 10.6-20.4 10.05-18.53 9.5-16.65 9.05-14.8L9.05-14.8Q8.65-13.05 8.45-11.15 8.25-9.25 8.3-7.33 8.35-5.4 8.75-3.58 9.15-1.75 9.95-0.2L9.95-0.2Q10.1 0.15 10.05 0.15L10.05 0.15Q9.95 0.15 9.9 0.1L9.9 0.1 9.8 0Q8.4-1.65 7.73-3.58 7.05-5.5 6.88-7.55 6.7-9.6 6.95-11.7 7.2-13.8 7.65-15.8L7.65-15.8Q8.5-19.5 9.65-22.93 10.8-26.35 11.6-29.65L11.6-29.65Q8.6-30.15 5.98-30.58 3.35-31 1.1-30.55L1.1-30.55Q0.95-30.55 0.95-30.6L0.95-30.6Q0.95-30.7 1.03-30.73 1.1-30.75 1.15-30.8L1.15-30.8Q2.85-31.8 4.78-31.9 6.7-32 8.78-31.73 10.85-31.45 13.03-31.03 15.2-30.6 17.4-30.55L17.4-30.55Q18.75-30.5 20.23-30.78 21.7-31.05 23.08-31.63 24.45-32.2 25.58-33.15 26.7-34.1 27.4-35.4L27.4-35.4Q27.5-35.65 27.6-35.65L27.6-35.65 27.6-35.5 27.6-35.4Q27.05-33.5 25.9-32.27 24.75-31.05 23.28-30.3 21.8-29.55 20.13-29.28 18.45-29 16.85-29.05L16.85-29.05Q17.1-27.5 16.88-25.45 16.65-23.4 16.2-21.3 15.75-19.2 15.25-17.32 14.75-15.45 14.45-14.3L14.45-14.3Q13.85-11.9 13.05-9.4 12.25-6.9 11.6-5L11.6-5Q11.5-4.75 11.38-4.55 11.25-4.35 11.15-4.4L11.15-4.4Q11.05-4.45 11.08-4.67 11.1-4.9 11.1-5.15L11.1-5.15Q11.25-8.9 12.2-12.65 13.15-16.4 14.25-20.2L14.25-20.2Q14.85-22.3 15.43-24.45 16-26.6 16.25-29.05L16.25-29.05Q16-29.1 15.83-29.1 15.65-29.1 15.4-29.1L15.4-29.1Q15.4-28.1 15.33-27.15 15.25-26.2 15-25.4ZM16.35-36.05L16.35-36.05Q18.3-35.8 20.3-35.65 22.3-35.5 23.75-35.5L23.75-35.5Q24.25-35.5 24.25-35.35L24.25-35.35Q24.25-35.15 23.75-35L23.75-35Q21.2-34 18.38-34.1 15.55-34.2 12.65-34.65L12.65-34.65Q10.9-34.9 9.05-35.15 7.2-35.4 5.05-35.15L5.05-35.15Q4.85-35.1 4.85-35.2L4.85-35.2Q4.85-35.3 4.95-35.35 5.05-35.4 5.15-35.5L5.15-35.5Q6.1-36.2 7.6-36.43 9.1-36.65 10.73-36.63 12.35-36.6 13.85-36.4 15.35-36.2 16.35-36.05ZM8.85-34.5L8.85-34.5Q10.95-34.2 13.13-33.75 15.3-33.3 17.35-32.75L17.35-32.75Q17.45-32.65 17.78-32.58 18.1-32.5 18.1-32.35L18.1-32.35Q18.1-32.25 17.8-32.2 17.5-32.15 17.35-32.05L17.35-32.05Q16.9-31.95 16.23-31.95 15.55-31.95 14.83-31.98 14.1-32 13.4-32.05 12.7-32.1 12.2-32.2L12.2-32.2Q11.85-32.25 10.48-32.4 9.1-32.55 7.45-32.6 5.8-32.65 4.28-32.58 2.75-32.5 2.1-32.15L2.1-32.15Q1.9-32.05 1.85-32.05L1.85-32.05 1.8-32.05Q1.8-32.25 2-32.45L2-32.45Q2.5-33.1 3.38-33.55 4.25-34 5.2-34.25 6.15-34.5 7.13-34.55 8.1-34.6 8.85-34.5ZM10.5-3.55L10.5-3.55Q10.65-2.7 10.88-1.85 11.1-1 11.45-0.2L11.45-0.2Q11.65 0.2 11.5 0.2L11.5 0.2Q11.4 0.2 11.2 0.1L11.2 0.1Q11.1 0.05 11.05-0.05L11.05-0.05Q10.4-0.8 10.03-1.45 9.65-2.1 9.4-3.55L9.4-3.55Q9.3-4.1 9.28-4.95 9.25-5.8 9.3-6.6 9.35-7.4 9.45-7.95 9.55-8.5 9.75-8.5L9.75-8.5Q9.8-8.5 9.88-8.25 9.95-8 10-7.68 10.05-7.35 10.1-7.03 10.15-6.7 10.15-6.6L10.15-6.6Q10.25-5.75 10.33-5 10.4-4.25 10.5-3.55ZM25-34.85L25-34.85Q26.1-35.8 26.85-36.9L26.85-36.9Q26.95-37.1 27.05-37.1L27.05-37.1Q27.1-37.1 27.1-36.75L27.1-36.75Q27.1-36.55 27.05-36.4L27.05-36.4Q26.85-35.55 26.6-35.05 26.35-34.55 25.4-33.85L25.4-33.85Q25.05-33.55 24.45-33.27 23.85-33 23.3-32.8 22.75-32.6 22.33-32.58 21.9-32.55 21.85-32.75L21.85-32.75Q21.85-32.8 22-32.93 22.15-33.05 22.38-33.2 22.6-33.35 22.8-33.48 23-33.6 23.1-33.65L23.1-33.65Q23.6-33.9 24.08-34.2 24.55-34.5 25-34.85ZM37.6-25.4L37.6-25.4Q36.9-22.7 35.87-19.8 34.85-16.9 33.75-14.3L33.75-14.3Q33.7-14.2 33.5-13.83 33.3-13.45 33.2-13.5L33.2-13.5Q33.05-13.5 33.07-13.93 33.1-14.35 33.15-14.5L33.15-14.5Q33.2-15.1 33.35-16 33.5-16.9 33.67-17.85 33.85-18.8 34.07-19.7 34.3-20.6 34.5-21.25L34.5-21.25Q34.6-21.45 34.8-22.25 35-23.05 35.22-24.18 35.45-25.3 35.7-26.65 35.95-28 36.15-29.3L36.15-29.3 35.55-29.45Q35.3-27.7 34.82-25.88 34.35-24.05 33.77-22.23 33.2-20.4 32.65-18.53 32.1-16.65 31.65-14.8L31.65-14.8Q31.25-13.05 31.05-11.15 30.85-9.25 30.9-7.33 30.95-5.4 31.35-3.58 31.75-1.75 32.55-0.2L32.55-0.2Q32.7 0.15 32.65 0.15L32.65 0.15Q32.55 0.15 32.5 0.1L32.5 0.1 32.4 0Q31-1.65 30.32-3.58 29.65-5.5 29.47-7.55 29.3-9.6 29.55-11.7 29.8-13.8 30.25-15.8L30.25-15.8Q31.1-19.5 32.25-22.93 33.4-26.35 34.2-29.65L34.2-29.65Q31.2-30.15 28.57-30.58 25.95-31 23.7-30.55L23.7-30.55Q23.55-30.55 23.55-30.6L23.55-30.6Q23.55-30.7 23.62-30.73 23.7-30.75 23.75-30.8L23.75-30.8Q25.45-31.8 27.37-31.9 29.3-32 31.37-31.73 33.45-31.45 35.62-31.03 37.8-30.6 40-30.55L40-30.55Q41.35-30.5 42.82-30.78 44.3-31.05 45.67-31.63 47.05-32.2 48.17-33.15 49.3-34.1 50-35.4L50-35.4Q50.1-35.65 50.2-35.65L50.2-35.65 50.2-35.5 50.2-35.4Q49.65-33.5 48.5-32.27 47.35-31.05 45.87-30.3 44.4-29.55 42.72-29.28 41.05-29 39.45-29.05L39.45-29.05Q39.7-27.5 39.47-25.45 39.25-23.4 38.8-21.3 38.35-19.2 37.85-17.32 37.35-15.45 37.05-14.3L37.05-14.3Q36.45-11.9 35.65-9.4 34.85-6.9 34.2-5L34.2-5Q34.1-4.75 33.97-4.55 33.85-4.35 33.75-4.4L33.75-4.4Q33.65-4.45 33.67-4.67 33.7-4.9 33.7-5.15L33.7-5.15Q33.85-8.9 34.8-12.65 35.75-16.4 36.85-20.2L36.85-20.2Q37.45-22.3 38.02-24.45 38.6-26.6 38.85-29.05L38.85-29.05Q38.6-29.1 38.42-29.1 38.25-29.1 38-29.1L38-29.1Q38-28.1 37.92-27.15 37.85-26.2 37.6-25.4ZM38.95-36.05L38.95-36.05Q40.9-35.8 42.9-35.65 44.9-35.5 46.35-35.5L46.35-35.5Q46.85-35.5 46.85-35.35L46.85-35.35Q46.85-35.15 46.35-35L46.35-35Q43.8-34 40.97-34.1 38.15-34.2 35.25-34.65L35.25-34.65Q33.5-34.9 31.65-35.15 29.8-35.4 27.65-35.15L27.65-35.15Q27.45-35.1 27.45-35.2L27.45-35.2Q27.45-35.3 27.55-35.35 27.65-35.4 27.75-35.5L27.75-35.5Q28.7-36.2 30.2-36.43 31.7-36.65 33.32-36.63 34.95-36.6 36.45-36.4 37.95-36.2 38.95-36.05ZM31.45-34.5L31.45-34.5Q33.55-34.2 35.72-33.75 37.9-33.3 39.95-32.75L39.95-32.75Q40.05-32.65 40.37-32.58 40.7-32.5 40.7-32.35L40.7-32.35Q40.7-32.25 40.4-32.2 40.1-32.15 39.95-32.05L39.95-32.05Q39.5-31.95 38.82-31.95 38.15-31.95 37.42-31.98 36.7-32 36-32.05 35.3-32.1 34.8-32.2L34.8-32.2Q34.45-32.25 33.07-32.4 31.7-32.55 30.05-32.6 28.4-32.65 26.87-32.58 25.35-32.5 24.7-32.15L24.7-32.15Q24.5-32.05 24.45-32.05L24.45-32.05 24.4-32.05Q24.4-32.25 24.6-32.45L24.6-32.45Q25.1-33.1 25.97-33.55 26.85-34 27.8-34.25 28.75-34.5 29.72-34.55 30.7-34.6 31.45-34.5ZM33.1-3.55L33.1-3.55Q33.25-2.7 33.47-1.85 33.7-1 34.05-0.2L34.05-0.2Q34.25 0.2 34.1 0.2L34.1 0.2Q34 0.2 33.8 0.1L33.8 0.1Q33.7 0.05 33.65-0.05L33.65-0.05Q33-0.8 32.62-1.45 32.25-2.1 32-3.55L32-3.55Q31.9-4.1 31.87-4.95 31.85-5.8 31.9-6.6 31.95-7.4 32.05-7.95 32.15-8.5 32.35-8.5L32.35-8.5Q32.4-8.5 32.47-8.25 32.55-8 32.6-7.68 32.65-7.35 32.7-7.03 32.75-6.7 32.75-6.6L32.75-6.6Q32.85-5.75 32.92-5 33-4.25 33.1-3.55ZM47.6-34.85L47.6-34.85Q48.7-35.8 49.45-36.9L49.45-36.9Q49.55-37.1 49.65-37.1L49.65-37.1Q49.7-37.1 49.7-36.75L49.7-36.75Q49.7-36.55 49.65-36.4L49.65-36.4Q49.45-35.55 49.2-35.05 48.95-34.55 48-33.85L48-33.85Q47.65-33.55 47.05-33.27 46.45-33 45.9-32.8 45.35-32.6 44.92-32.58 44.5-32.55 44.45-32.75L44.45-32.75Q44.45-32.8 44.6-32.93 44.75-33.05 44.97-33.2 45.2-33.35 45.4-33.48 45.6-33.6 45.7-33.65L45.7-33.65Q46.2-33.9 46.67-34.2 47.15-34.5 47.6-34.85Z" opacity="1" transform="matrix(1,0,0,1,0,0)" fill="#ffffff" class="wordmark-text-0" data-fill-palette-color="quaternary" id="text-0"></path></svg></g></svg></g></svg></g></svg></g><g></g></svg></g><defs></defs></svg><rect width="368.6647722609472" height="247.2" fill="none" stroke="none" visibility="hidden"></rect></g></svg></g></svg>